# xmcd
#
# Track frame offsets:
#	150
#	21879
#	36343
#	50616
#	67046
#	85878
#	96769
#	108510
#	124602
#	136724
#	150305
#	176997
#	192575
#	206613
#	218749
#	238075
#
# Disc length: 3393 seconds
#
# Revision: 1
# Processed by: cddbd v1.5.2PL0 Copyright (c) Steve Scherf et al.
# Submitted via: EasyCDDAExtractor 10.1.0.1
#
DISCID=e40d3f10
DTITLE=Jakub Smolik - Country&bonusy
DYEAR=1995
DGENRE=Country
TTITLE0=Ave Maria
TTITLE1=Mas oci my mamy
TTITLE2=Jeste nechod spat
TTITLE3=Chvala blaznovstvi
TTITLE4=Az me andele
TTITLE5=Mame
TTITLE6=Laska
TTITLE7=Sasek
TTITLE8=Mam lasku jinou
TTITLE9=O nespocetne krase tela
TTITLE10=Ticha noc
TTITLE11=Posledni start
TTITLE12=Srdce na dlani
TTITLE13=Zblazneni
TTITLE14=Kesera
TTITLE15=Spi, ja musim jit
EXTD=
EXTT0=
EXTT1=
EXTT2=
EXTT3=
EXTT4=
EXTT5=
EXTT6=
EXTT7=
EXTT8=
EXTT9=
EXTT10=
EXTT11=
EXTT12=
EXTT13=
EXTT14=
EXTT15=
PLAYORDER=
